<?xml version="1.0" encoding="UTF-8" standalone="no"?>
<!-- Created with Inkscape (http://www.inkscape.org/) -->

<svg
   xmlns:dc="http://purl.org/dc/elements/1.1/"
   xmlns:cc="http://creativecommons.org/ns#"
   xmlns:rdf="http://www.w3.org/1999/02/22-rdf-syntax-ns#"
   xmlns:svg="http://www.w3.org/2000/svg"
   xmlns="http://www.w3.org/2000/svg"
   xmlns:sodipodi="http://sodipodi.sourceforge.net/DTD/sodipodi-0.dtd"
   xmlns:inkscape="http://www.inkscape.org/namespaces/inkscape"
   width="284.74298mm"
   height="36.851955mm"
   viewBox="0 0 1008.9318 130.57779"
   id="svg2"
   version="1.1"
   inkscape:version="0.91 r13725"
   sodipodi:docname="mobilly_logo.svg">
  <defs
     id="defs4">
    <clipPath
       id="clipPath3350"
       clipPathUnits="userSpaceOnUse">
      <path
         inkscape:connector-curvature="0"
         id="path3352"
         d="m 0,595.28 841.89,0 L 841.89,0 0,0 0,595.28 Z" />
    </clipPath>
  </defs>
  <sodipodi:namedview
     id="base"
     pagecolor="#ffffff"
     bordercolor="#666666"
     borderopacity="1.0"
     inkscape:pageopacity="0.0"
     inkscape:pageshadow="2"
     inkscape:zoom="0.35"
     inkscape:cx="735.18019"
     inkscape:cy="216.21762"
     inkscape:document-units="px"
     inkscape:current-layer="layer1"
     showgrid="false"
     fit-margin-top="0"
     fit-margin-left="0"
     fit-margin-right="0"
     fit-margin-bottom="0"
     inkscape:window-width="1536"
     inkscape:window-height="801"
     inkscape:window-x="1528"
     inkscape:window-y="2"
     inkscape:window-maximized="1" />
  <metadata
     id="metadata7">
    <rdf:RDF>
      <cc:Work
         rdf:about="">
        <dc:format>image/svg+xml</dc:format>
        <dc:type
           rdf:resource="http://purl.org/dc/dcmitype/StillImage" />
        <dc:title></dc:title>
      </cc:Work>
    </rdf:RDF>
  </metadata>
  <g
     inkscape:label="Layer 1"
     inkscape:groupmode="layer"
     id="layer1"
     transform="translate(24.465904,-518.00203)">
    <g
       transform="matrix(1.25,0,0,-1.25,-53.341353,942.7267)"
       inkscape:label="logo pilnais"
       id="g3344">
      <g
         id="g3346">
        <g
           clip-path="url(#clipPath3350)"
           id="g3348">
          <g
             transform="translate(61.8228,337.6953)"
             id="g3366">
            <path
               inkscape:connector-curvature="0"
               id="path3368"
               style="fill:#2b2728;fill-opacity:1;fill-rule:nonzero;stroke:none"
               d="M 0,0 C 13.11,3.629 27.672,2.165 39.687,-4.197 55.467,-12.2 66.285,-28.559 67.54,-45.89 68.995,-62.48 61.842,-79.755 48.553,-90.24 32.097,-103.842 7.133,-106.226 -11.536,-95.587 -31.1,-84.946 -42.438,-61.504 -37.615,-39.958 -34.03,-21.102 -18.868,-5.055 0,0" />
          </g>
          <g
             transform="translate(182.8574,338.6904)"
             id="g3370">
            <path
               inkscape:connector-curvature="0"
               id="path3372"
               style="fill:#2b2728;fill-opacity:1;fill-rule:nonzero;stroke:none"
               d="M 0,0 C 17.273,3.359 36.121,-2.108 48.314,-14.64 63.256,-29.161 67.66,-52.621 59.312,-71.521 52.917,-86.16 39.428,-97.83 23.57,-101.577 c -21.778,-5.975 -46.841,3.904 -58.417,22.893 -11.435,17.454 -10.518,41.479 2.033,58.131 C -25.104,-9.916 -13.011,-2.535 0,0" />
          </g>
          <g
             transform="translate(298.6318,338.5723)"
             id="g3374">
            <path
               inkscape:connector-curvature="0"
               id="path3376"
               style="fill:#2b2728;fill-opacity:1;fill-rule:nonzero;stroke:none"
               d="m 0,0 c 17.374,3.554 36.381,-1.64 48.911,-14.034 16.956,-16.179 20.483,-43.762 8.15,-63.532 -11.397,-19.7 -37.078,-30.042 -59.311,-23.817 -22.953,5.505 -40.585,27.678 -39.37,50.987 C -42.356,-26.684 -23.45,-4.724 0,0" />
          </g>
          <g
             transform="translate(416.0596,338.6519)"
             id="g3378">
            <path
               inkscape:connector-curvature="0"
               id="path3380"
               style="fill:#2b2728;fill-opacity:1;fill-rule:nonzero;stroke:none"
               d="M 0,0 C 24.507,5.33 51.384,-8.863 60.147,-31.894 68.836,-52.645 61.844,-78.314 43.691,-91.978 25.803,-106.243 -1.573,-106.95 -20.202,-93.555 -38.313,-81.3 -46.938,-57.27 -40.483,-36.618 -35.284,-18.292 -19.086,-3.591 0,0" />
          </g>
          <g
             transform="translate(531.5752,338.3965)"
             id="g3382">
            <path
               inkscape:connector-curvature="0"
               id="path3384"
               style="fill:#2b2728;fill-opacity:1;fill-rule:nonzero;stroke:none"
               d="m 0,0 c 16.457,3.653 34.489,-0.645 47.098,-11.712 19.147,-15.772 23.51,-45.381 10.342,-66.091 -9.303,-15.615 -27.477,-25.2 -45.803,-25.276 -16.897,0.35 -33.711,8.451 -43.277,22.292 -14.641,19.889 -12.172,50.086 6.118,67.028 C -18.51,-6.987 -9.603,-2.146 0,0" />
          </g>
          <g
             transform="translate(645.6758,337.6758)"
             id="g3386">
            <path
               inkscape:connector-curvature="0"
               id="path3388"
               style="fill:#2b2728;fill-opacity:1;fill-rule:nonzero;stroke:none"
               d="m 0,0 c 26.477,8.083 57.318,-7.945 65.171,-34.021 8.647,-24.518 -4.622,-53.777 -29.071,-63.77 -18.227,-8.122 -40.902,-4.898 -56.003,7.963 -14.982,12.294 -22.236,33.241 -17.193,51.842 C -33.109,-19.908 -18.168,-4.842 0,0" />
          </g>
          <g
             transform="translate(766.7109,338.7095)"
             id="g3390">
            <path
               inkscape:connector-curvature="0"
               id="path3392"
               style="fill:#2b2728;fill-opacity:1;fill-rule:nonzero;stroke:none"
               d="M 0,0 C 23.55,4.979 49.17,-7.983 58.734,-29.592 67.637,-47.9 63.856,-71.089 49.891,-85.98 40.305,-96.579 26.2,-102.771 11.814,-103.375 c -17.51,-0.216 -35.244,8.023 -45.128,22.37 -9.023,12.592 -11.892,29.203 -7.586,43.979 C -35.805,-18.425 -19.325,-3.53 0,0" />
          </g>
          <g
             transform="translate(53.4351,310.6616)"
             id="g3394">
            <path
               inkscape:connector-curvature="0"
               id="path3396"
               style="fill:#fefefe;fill-opacity:1;fill-rule:nonzero;stroke:none"
               d="m 0,0 c 3.566,0.488 7.292,0.605 10.798,-0.332 4.822,-4.88 8.089,-11.01 12.194,-16.455 4.183,5.194 7.908,10.736 12.431,15.655 3.069,3.298 8.07,1.013 12.015,1.152 -0.22,-15.597 0.776,-31.27 -0.638,-46.828 -3.626,0.038 -7.233,0.136 -10.839,0.331 -0.159,9.215 -0.08,18.407 -0.08,27.621 -3.923,-4.78 -7.55,-9.954 -12.491,-13.84 -6.036,2.616 -8.468,9.428 -12.512,14.154 0.02,-9.487 0.16,-18.975 -0.159,-28.462 -3.686,0.409 -8.607,-1.638 -11.456,1.189 -0.897,12.239 -0.061,24.557 -0.419,36.837 C -0.877,-5.993 -1.754,-2.635 0,0" />
          </g>
          <g
             transform="translate(183.395,310.292)"
             id="g3398">
            <path
               inkscape:connector-curvature="0"
               id="path3400"
               style="fill:#fefefe;fill-opacity:1;fill-rule:nonzero;stroke:none"
               d="m 0,0 c 8.946,2.085 20.124,2.203 26.956,-4.842 3.407,-3.671 3.865,-8.902 4.583,-13.606 1.255,-8.647 -0.06,-18.563 -7.073,-24.651 -11.396,-7.225 -31.041,-5.467 -35.743,8.785 C -14.345,-22.491 -14.524,-4.453 0,0" />
          </g>
          <g
             transform="translate(295.4639,311.0698)"
             id="g3402">
            <path
               inkscape:connector-curvature="0"
               id="path3404"
               style="fill:#fefefe;fill-opacity:1;fill-rule:nonzero;stroke:none"
               d="m 0,0 c 9.483,-0.134 19.386,1.132 28.551,-1.795 8.247,-3.493 7.272,-14.56 2.49,-20.515 6.057,-6.501 6.555,-17.881 -1.036,-23.404 -8.946,-3.512 -19.047,-1.734 -28.43,-1.62 -2.829,2.833 -2.013,7.006 -2.173,10.56 C -0.259,-24.515 -1.155,-12.219 0,0" />
          </g>
          <g
             transform="translate(422.4355,310.4058)"
             id="g3406">
            <path
               inkscape:connector-curvature="0"
               id="path3408"
               style="fill:#fefefe;fill-opacity:1;fill-rule:nonzero;stroke:none"
               d="M 0,0 C 3.168,0.469 6.376,0.374 9.563,0.432 11.535,-14.971 10.061,-30.587 10.42,-46.085 6.654,-46.67 2.849,-46.96 -0.956,-47.04 -2.052,-34.272 -1.275,-21.452 -1.555,-8.666 -1.255,-5.795 -2.211,-2.302 0,0" />
          </g>
          <g
             transform="translate(531.9141,309.335)"
             id="g3410">
            <path
               inkscape:connector-curvature="0"
               id="path3412"
               style="fill:#fefefe;fill-opacity:1;fill-rule:nonzero;stroke:none"
               d="m 0,0 c 2.709,2.634 6.911,1.384 10.281,1.17 2.171,-2.459 1.732,-5.798 1.853,-8.821 0.018,-9.078 -0.199,-18.175 0.12,-27.271 5.339,-0.625 10.717,-0.506 16.036,-1.189 2.97,-2.327 2.073,-6.775 0.039,-9.409 -6.215,-0.744 -12.55,-0.645 -18.767,-0.118 -5.296,0.701 -9.644,5.25 -9.644,10.56 C -0.439,-23.403 -0.618,-11.674 0,0" />
          </g>
          <g
             transform="translate(647.1895,305.8584)"
             id="g3414">
            <path
               inkscape:connector-curvature="0"
               id="path3416"
               style="fill:#fefefe;fill-opacity:1;fill-rule:nonzero;stroke:none"
               d="m 0,0 c -1.73,7.338 13.666,7.164 12.273,-0.095 0.358,-10.466 -0.139,-20.946 0.218,-31.426 5.721,-0.824 11.777,0.096 17.296,-1.74 0.916,-2.851 0.816,-6.186 -0.975,-8.724 C 22.554,-42.806 16.18,-42.669 9.923,-42.18 4.604,-41.479 0.218,-36.95 0.161,-31.659 -0.279,-21.122 -0.02,-10.538 0,0" />
          </g>
          <g
             transform="translate(755.7539,310.5239)"
             id="g3418">
            <path
               inkscape:connector-curvature="0"
               id="path3420"
               style="fill:#fefefe;fill-opacity:1;fill-rule:nonzero;stroke:none"
               d="m 0,0 c 3.843,0.294 7.828,1.27 11.653,0.1 3.887,-5.935 6.635,-12.475 9.823,-18.8 3.369,6.287 6.893,12.494 10.299,18.74 3.608,0.155 7.235,0.216 10.881,0.117 -3.806,-10.347 -10.779,-19.168 -15.064,-29.278 -0.638,-5.545 0.121,-11.149 -0.716,-16.673 -3.269,-2.066 -7.451,-1.56 -11.017,-0.838 -1.856,5.936 -0.203,12.242 -1.396,18.231 C 10.158,-18.7 4.003,-9.858 0,0" />
          </g>
          <g
             transform="translate(186.7021,300.8408)"
             id="g3422">
            <path
               inkscape:connector-curvature="0"
               id="path3424"
               style="fill:#2b2728;fill-opacity:1;fill-rule:nonzero;stroke:none"
               d="M 0,0 C 5.021,0.531 12.512,2.245 14.764,-3.843 16.755,-11.025 18.11,-21.041 11.396,-26.351 7.212,-27.773 1.275,-27.91 -1.474,-23.869 -5.359,-16.317 -4.722,-7.083 0,0" />
          </g>
          <g
             transform="translate(306.9795,301.3896)"
             id="g3426">
            <path
               inkscape:connector-curvature="0"
               id="path3428"
               style="fill:#2b2728;fill-opacity:1;fill-rule:nonzero;stroke:none"
               d="M 0,0 C 3.566,-0.469 7.312,-0.469 10.699,-1.856 11.735,-4.49 10.898,-7.087 8.907,-9.039 5.918,-9.427 2.909,-9.467 -0.08,-9.623 -0.08,-6.404 -0.059,-3.202 0,0" />
          </g>
          <g
             transform="translate(306.9204,282.7285)"
             id="g3430">
            <path
               inkscape:connector-curvature="0"
               id="path3432"
               style="fill:#2b2728;fill-opacity:1;fill-rule:nonzero;stroke:none"
               d="m 0,0 c 3.884,-0.157 7.77,-0.37 11.655,-0.683 0.04,-2.615 0.06,-5.23 0.02,-7.864 C 7.789,-8.842 3.884,-9.036 0,-9.234 L 0,0 Z" />
          </g>
        </g>
      </g>
    </g>
  </g>
</svg>
