<svg xmlns="http://www.w3.org/2000/svg"  viewBox="0 0 39.055 39.054">
  <path fill="#fff" d="M38.83 14.26c-.19-.233-.475-.37-.774-.37h-3.8c-.94-2.473-2.16-4.897-3.55-5.812-4.805-3.16-17.55-3.16-22.355 0-1.39.916-2.606 3.343-3.55 5.813H1c-.302 0-.586.137-.775.37-.19.232-.266.54-.204.834l.564 2.728c.096.465.506.797.98.797h1.125C1.6 19.872 1.074 21.45 1.067 23.03c-.007 1.952.734 3.716 2.09 4.964.014.013.03.022.043.035v3.818c0 .827.673 1.5 1.5 1.5h3.507c.828 0 1.5-.673 1.5-1.5v-1.534h19.64v1.534c0 .827.673 1.5 1.5 1.5h3.507c.826 0 1.5-.673 1.5-1.5v-3.742c1.438-1.317 2.125-3.13 2.134-4.938.006-1.634-.545-3.27-1.696-4.55h1.2c.476 0 .886-.333.98-.8l.564-2.726c.058-.293-.015-.598-.205-.832zM10 10.583c3.83-2.52 15.23-2.52 19.057 0 .744.488 1.7 2.46 2.578 4.877H7.423c.874-2.415 1.83-4.387 2.575-4.877zM5.512 23.408c0-1.63 1.322-2.95 2.95-2.95 1.632 0 2.952 1.32 2.952 2.95s-1.32 2.95-2.95 2.95c-1.63 0-2.952-1.32-2.952-2.95zm25.12 2.95c-1.63 0-2.952-1.32-2.952-2.95s1.322-2.95 2.95-2.95c1.632 0 2.952 1.32 2.952 2.95s-1.322 2.95-2.95 2.95z"/>
</svg>
