<svg xmlns="http://www.w3.org/2000/svg" viewBox="0 0 525.153 525.153">
  <path fill="#fff" d="M464.454 87.788c-5.777-17.133-22.144-29.41-41.4-29.41H350.08V0H175.073v58.38H102.1c-19.257 0-35.252 12.274-41.4 29.408L0 262.576v233.387c0 15.995 13.13 29.19 29.19 29.19h29.19c15.995 0 29.124-13.194 29.124-29.19v-29.19H437.65v29.19c0 15.995 13.128 29.19 29.123 29.19h29.19c16.06 0 29.19-13.194 29.19-29.19V262.576l-60.7-174.788zM102.098 379.335c-24.18 0-43.72-19.65-43.72-43.85 0-24.2 19.54-43.72 43.72-43.72 24.245 0 43.785 19.54 43.785 43.72s-19.54 43.85-43.785 43.85zm320.956 0c-24.245 0-43.785-19.65-43.785-43.85 0-24.2 19.54-43.72 43.784-43.72 24.18 0 43.72 19.54 43.72 43.72s-19.54 43.85-43.72 43.85zM58.38 233.387L102.097 102.1h320.956l43.72 131.287H58.378z"/>
</svg>
